<svg xmlns="http://www.w3.org/2000/svg" data-name="Layer 1" viewBox="0 0 128 160" x="0px" y="0px"><title>137 Web Icon Set 82 expanded</title><path d="M15.08789,36.85449a10.22941,10.22941,0,0,0,1.80273-.16016,10.029,10.029,0,0,0,6.54-4.18164,9.73971,9.73971,0,0,0,1.583-7.37012A10.14529,10.14529,0,0,0,6.75,21.3418a9.74645,9.74645,0,0,0-1.585,7.37109h.001A10.066,10.066,0,0,0,15.08789,36.85449ZM10.03906,23.61816A6.14656,6.14656,0,0,1,21.082,25.873a5.768,5.768,0,0,1-.94141,4.36328,6.14529,6.14529,0,0,1-11.042-2.25391A5.76562,5.76562,0,0,1,10.03906,23.61816Z"/><path d="M.23633,109.39844a2.70977,2.70977,0,0,0,.42773,2.88086,1.99983,1.99983,0,0,0,3.53613-1.22266,1.46728,1.46728,0,0,1,.33887-.0625c5.4082-.23535,10.53613-1.92871,15.49512-3.56641,4.73828-1.56445,9.21289-3.043,13.88867-3.34375,1.293-.083,2.58594-.07617,3.95508-.06738a46.3874,46.3874,0,0,0,5.56152-.19336c2.96973-.33887,7.0498-1.43848,9.626-4.752a18.03057,18.03057,0,0,0,2.61621-5.501,14.27855,14.27855,0,0,1,2.05859-4.4209,14.13193,14.13193,0,0,1,2.8623-2.40723A18.36971,18.36971,0,0,0,64.0752,83.8125a18.57772,18.57772,0,0,0,3.01074-5.65332,13.6236,13.6236,0,0,1,2.584-4.76953,13.5834,13.5834,0,0,1,3.30371-2.14355l11.541-6.04c3.3125-1.73437,7.06836-3.70117,9.94141-6.73535a36.65018,36.65018,0,0,0,2.9668-3.72656,28.25242,28.25242,0,0,1,3.05078-3.748c2.48047-2.4082,5.78809-3.75293,9.29-5.17676a45.29822,45.29822,0,0,0,7.71-3.72461,23.71728,23.71728,0,0,0,10.51172-16.85254,2.00007,2.00007,0,0,0-3.9707-.48437,19.6731,19.6731,0,0,1-8.7168,13.97949,41.519,41.519,0,0,1-7.041,3.376c-3.70215,1.50586-7.53027,3.0625-10.56934,6.0127a31.77525,31.77525,0,0,0-3.50195,4.26758,32.90152,32.90152,0,0,1-2.63477,3.32715c-2.415,2.55078-5.707,4.27441-8.89062,5.94141l-11.541,6.04a16.803,16.803,0,0,0-4.27637,2.8584,16.75894,16.75894,0,0,0-3.48437,6.14551,15.3709,15.3709,0,0,1-2.3125,4.49414A15.07858,15.07858,0,0,1,58.292,83.47559a17.37731,17.37731,0,0,0-3.65723,3.15234,17.45033,17.45033,0,0,0-2.73926,5.65234,23.17583,23.17583,0,0,1-1.24738,3.13678c-.00366-.02155-.00159-.043-.00555-.06451L47.53418,78.626a5.95407,5.95407,0,0,0-2.834-4.03711l-12.05566-8.3916-1.65259-8.89343,5.70825,1.035a1.99812,1.99812,0,0,0,1.55078-.36328l12.39258-9.2207a3.97655,3.97655,0,0,0,.94043-5.375l-.67041-1.27563.49072-.365a3.98669,3.98669,0,0,0,.93262-5.37207L51.02637,33.877a1.97513,1.97513,0,0,0-.15723-.252,4.05093,4.05093,0,0,0-5.65137-.85547l-9.47852,6.96484-9.11-1.6499a11.4827,11.4827,0,0,0-5.37537-.18994l-7.958,1.41992a8.01673,8.01673,0,0,0-5.22656,3.3457A7.80221,7.80221,0,0,0,6.79883,48.5625l4.18262,22.49023L12.9043,85.10352a1.92432,1.92432,0,0,1-.24414,1.24512c-.02539.043-.04785.08594-.06934.12988L6.50977,98.96582a3.92565,3.92565,0,0,0-.35059,2.96,3.98391,3.98391,0,0,0,1.9541,2.44531l3.007,1.57428a34.13183,34.13183,0,0,1-6.755,1.05267C3.1084,107.05273.97168,107.7373.23633,109.39844Zm9.84375-8.62793L16.1582,88.28906a5.96965,5.96965,0,0,0,.709-3.73145L14.92969,70.416,10.73242,47.832a3.82891,3.82891,0,0,1,.626-2.89648A4.04953,4.04953,0,0,1,13.999,43.252l7.957-1.41992A7.715,7.715,0,0,1,25.80957,42c.01215.00262.02411.00165.03625.004.01044.00208.01965.00677.03015.00867L35.873,43.82324a2.00171,2.00171,0,0,0,1.541-.35645L47.627,36.00488l1.22656,2.33105a1.59925,1.59925,0,0,0,.15918.19727l-.90564.67352a4.07165,4.07165,0,0,0-.62366-.15887,4.0131,4.0131,0,0,0-3.01465.73633l-9.498,6.97559L23.0498,44.81934a1.99961,1.99961,0,1,0-.64258,3.94727l12.749,2.0752a2.00282,2.00282,0,0,0,1.50488-.36133l10.21484-7.459,1.22363,2.32715a1.49886,1.49886,0,0,0,.15527.19727L36.55957,54.248,21.90723,51.5918a1.9998,1.9998,0,1,0-.71289,3.93555l5.58667,1.013,2.09009,11.24579a2.02158,2.02158,0,0,0,.86816,1.28418,1.82754,1.82754,0,0,0,.207.12207L42.48145,77.918a1.73783,1.73783,0,0,0,.15234.0957,1.96318,1.96318,0,0,1,.9668,1.34277l3.09668,16.69727-4.0127.71875L40.31348,84.01367a5.98671,5.98671,0,0,0-2.916-4.09277L24.458,72.6095l-.05176-.93567a2.00012,2.00012,0,0,0-3.99414.2207l.8623,15.58691c.00293.05469.00879.1084.01563.16309a1.90021,1.90021,0,0,1-.23828,1.22656c-.02441.041-.04687.084-.06836.127l-6.82227,13.99121-.10449-.02051-4.043-2.07227C10.03711,100.85547,10.05957,100.81348,10.08008,100.77051Zm14.46973-9.96a5.86612,5.86612,0,0,0,.71484-3.624l-.54413-9.83386,10.69257,6.04187a1.97982,1.97982,0,0,1,.9668,1.34961L38.751,97.50293a3.95208,3.95208,0,0,0,1.62634,2.50494c-.807.0166-1.62793.01294-2.475.00873-1.37891-.01074-2.80469-.01758-4.2373.0752-5.18555.335-10.11719,1.96289-14.88574,3.53809-.19189.06335-.38092.12506-.572.188Z"/><path d="M76,45.86621a9.14867,9.14867,0,1,0-9-9.14746A9.08472,9.08472,0,0,0,76,45.86621Zm0-14.29492a5.14964,5.14964,0,1,1-5,5.14746A5.08148,5.08148,0,0,1,76,31.57129Z"/><path d="M97,36.71875a21.79387,21.79387,0,0,0-2.31934-9.78516,1.99981,1.99981,0,0,0-3.57031,1.80273A17.54108,17.54108,0,0,1,93,36.71875,17.22276,17.22276,0,0,1,76,54.11816a16.60407,16.60407,0,0,1-6.72955-1.42841l.28815-.09406A2.00024,2.00024,0,1,0,68.31641,48.793L63.623,50.3252a2.2787,2.2787,0,0,0-1.43555,2.47949l1.02344,4.627a2.00025,2.00025,0,0,0,3.90625-.86328l-.11346-.513A20.58659,20.58659,0,0,0,76,58.11816,21.22668,21.22668,0,0,0,97,36.71875Z"/><path d="M55,36.71875a21.70143,21.70143,0,0,0,2.89746,10.85352,2,2,0,1,0,3.46289-2.002A17.7,17.7,0,0,1,59,36.71875,17.22276,17.22276,0,0,1,76,19.31934a16.66541,16.66541,0,0,1,7.86615,1.9718l-.34662.11316A2.00024,2.00024,0,1,0,84.76172,25.207l4.69336-1.53223a2.27894,2.27894,0,0,0,1.43555-2.48047l-1.02441-4.627a2.00046,2.00046,0,0,0-3.90625.86523l.11475.51837A20.65211,20.65211,0,0,0,76,15.31934,21.22668,21.22668,0,0,0,55,36.71875Z"/><text x="0" y="143" fill="#000000" font-size="5px" font-weight="bold" font-family="'Helvetica Neue', Helvetica, Arial-Unicode, Arial, Sans-serif">Created by Creative Mahira</text><text x="0" y="148" fill="#000000" font-size="5px" font-weight="bold" font-family="'Helvetica Neue', Helvetica, Arial-Unicode, Arial, Sans-serif">from the Noun Project</text></svg>