<svg xmlns="http://www.w3.org/2000/svg" data-name="Layer 1" viewBox="0 0 128 160" x="0px" y="0px"><title>185 Web Icon Set 129 expanded</title><path d="M86,30A13,13,0,1,0,73,17,13.01474,13.01474,0,0,0,86,30ZM86,8a9,9,0,1,1-9,9A9.01015,9.01015,0,0,1,86,8Z"/><path d="M74.459,81.88867c-5.69238-.36914-11.45313-2.54883-12.80176-4.251a1.99993,1.99993,0,1,0-3.13477,2.48438C61,83.251,68.43945,85.50684,74.19922,85.88086c.04492.00293.08789.00391.13184.00391a2.00015,2.00015,0,0,0,.12793-3.99609Z"/><path d="M0,122a2.0001,2.0001,0,0,0,2,2H126a2,2,0,0,0,0-4h-9.05206l10.15948-6.75586a1.99937,1.99937,0,0,0,.5625-2.76562,11.45119,11.45119,0,0,0-11.01337-5.06763L104.71387,87.06641a7.70691,7.70691,0,0,0-2.91992-2.6416L78.87659,72.62115,84.11444,57.4848l4.01642,3.45807A7.65887,7.65887,0,0,0,93.11816,62.79a7.50756,7.50756,0,0,0,1.65137-.18311l19.42676-4.37012a3.911,3.911,0,0,0,2.98633-4.45508l-.50684-3.0752a3.88072,3.88072,0,0,0-3.835-3.272H96.22656a1.76235,1.76235,0,0,1-1.45605-.78125l-5.92383-8.74609a1.97757,1.97757,0,0,0-.38483-.411,9.55779,9.55779,0,0,0-5.247-5.25012l-8.41211-3.42822-.00916-.00372-3.027-1.23358a9.51648,9.51648,0,0,0-5.93359-.40283L41.9082,33.33936a7.69375,7.69375,0,0,0-5.75,6.98926L34.96191,58.89453a3.93915,3.93915,0,0,0,1.05078,2.93652,3.89056,3.89056,0,0,0,2.82813,1.22754h3.50977a3.87126,3.87126,0,0,0,3.71191-2.75049L50.18262,46.96a1.79042,1.79042,0,0,1,1.59668-1.269l7.46472-.40845L51.42871,69.51465a16.46066,16.46066,0,0,0-.66913,9.81482L36.48535,92.63379a1.7169,1.7169,0,0,1-2.03906.25488L21.43463,84.23773a1.98622,1.98622,0,0,0-.56549-1.59418L15.5752,77.3252a3.99975,3.99975,0,0,0-5.66895,0L.583,86.6875a1.99928,1.99928,0,0,0,0,2.82227A11.4444,11.4444,0,0,0,13.57507,91.798c.08514.0921.16644.18744.26086.2713L31.51172,107.791a7.56438,7.56438,0,0,0,8.585.73242L69.91113,91.6225,91.64551,97.1748a1.76408,1.76408,0,0,1,.833.48828l13.6355,14.18671a1.97941,1.97941,0,0,0,.31079,1.30255l4.13574,6.27344a4.0386,4.0386,0,0,0,.46527.57422H2A2.0001,2.0001,0,0,0,0,122ZM88.5647,44.62427,91.459,48.897a5.75886,5.75886,0,0,0,4.76758,2.5376h16.51563l.48047,2.92139L93.89258,58.70459a3.63179,3.63179,0,0,1-3.15234-.793l-5.21869-4.49316ZM51.56055,41.69678a5.80834,5.80834,0,0,0-5.2002,4.08252l-4.09863,13.2793H38.96l1.19043-18.47314a3.7,3.7,0,0,1,2.75586-3.37207l23.9248-6.16162a5.411,5.411,0,0,1,3.4248.23242l2.54749,1.03821c1.3139,1.56293,6.614,8.77753.431,17.04431a6.97927,6.97927,0,0,1-4.76855,3.05664c-2.6676.34216-5.32446-1.00122-6.71924-1.86951l1.77551-5.50549,5.30994-.29053a2.00006,2.00006,0,1,0-.21875-3.99414ZM14.00781,86.6875a7.48219,7.48219,0,0,1-8.99707,1.22266l7.72949-7.7627,3.88965,3.90723Zm24.11328,18.35742a3.56542,3.56542,0,0,1-4.01367-.2959L16.90515,89.44611l2.04724-2.0556L32.293,96.25879a5.76221,5.76221,0,0,0,6.91895-.69922l4.50018-4.1944a12.92309,12.92309,0,0,0,5.70618,7.27563Zm15.87006-8.9964c-3.1972-.30573-6.68378-3.64417-6.79468-7.931l5.3114-4.9505c2.28735,3.38379,6.23206,5.74219,11.73236,7.00677l.07867.02008Zm24.53912-6.35187L65.18359,86.28711c-5.0498-1.16211-8.38867-3.28027-9.92187-6.29687-2.12793-4.18652-.13965-8.94141-.12207-8.98145.02637-.06152.0498-.123.07031-.18652L60.4892,54.45258a15.1361,15.1361,0,0,0,7.12213,2.024,10.58239,10.58239,0,0,0,8.82617-4.71436,16.88268,16.88268,0,0,0,2.43177-16.96771l2.83582,1.1557a5.655,5.655,0,0,1,3.1543,7.15234L81.28583,53.4292l-.00366.01068-5.9975,17.33124-2.45654-1.26526a2.00038,2.00038,0,1,0-1.832,3.55664l14.14465,7.285C84.74878,85.43756,81.89838,89.54681,78.53027,89.69666ZM108.9809,109.0611,95.3623,94.8916a5.74542,5.74542,0,0,0-2.72754-1.5918l-8.1474-2.08136a15.19449,15.19449,0,0,0,4.45245-8.91425l11.02112,5.67627a3.70308,3.70308,0,0,1,1.40039,1.26758l11.38422,17.3844a11.69217,11.69217,0,0,0-1.02191.60486Zm1.88043,3.55316,3.07715-2.04687a7.4946,7.4946,0,0,1,9.07324.59668l-9.11133,6.05957Z"/><text x="0" y="143" fill="#000000" font-size="5px" font-weight="bold" font-family="'Helvetica Neue', Helvetica, Arial-Unicode, Arial, Sans-serif">Created by Creative Mahira</text><text x="0" y="148" fill="#000000" font-size="5px" font-weight="bold" font-family="'Helvetica Neue', Helvetica, Arial-Unicode, Arial, Sans-serif">from the Noun Project</text></svg>