<svg xmlns="http://www.w3.org/2000/svg" xmlns:xlink="http://www.w3.org/1999/xlink" xmlns:serif="http://www.serif.com/" version="1.1" xml:space="preserve" style="" x="0px" y="0px" viewBox="0 0 64 80" fill-rule="evenodd" clip-rule="evenodd" stroke-linejoin="round" stroke-miterlimit="2"><g serif:id="TNP 1. O"><path d="M3.95,28.853C6.193,25.587 10.658,26.065 10.658,26.065C11.07,26.107 11.438,25.806 11.48,25.394C11.522,24.983 11.222,24.614 10.81,24.572C10.81,24.572 7.265,24.229 4.478,26.213C6.198,19.716 10.772,14.466 16.074,10.886C16.582,14.65 20.178,15.179 20.178,15.179C20.587,15.243 20.971,14.962 21.034,14.553C21.098,14.144 20.817,13.76 20.408,13.697C20.408,13.697 17.522,13.216 17.515,9.964C19.769,8.599 22.116,7.53 24.403,6.787C30.466,4.818 38.614,5.199 45.311,7.011C48.991,8.007 52.234,9.428 54.424,11.151C50.017,10.57 47.706,13.492 47.706,13.492C47.445,13.814 47.495,14.286 47.816,14.547C48.138,14.807 48.611,14.758 48.871,14.436C48.871,14.436 51.515,11.265 56.465,13.242C56.477,13.247 56.49,13.252 56.503,13.257C60.86,18.77 61.433,27.219 58.217,32.138C56.221,35.19 53.86,35.641 51.587,36.011C49.848,36.294 48.155,36.548 46.639,37.563C45.848,34.581 42.745,32.33 39.856,32.33C39.442,32.33 39.106,32.666 39.106,33.08C39.106,33.494 39.442,33.83 39.856,33.83C42.363,33.83 45.096,35.977 45.317,38.687C45.32,38.719 45.324,38.751 45.331,38.781C44.987,39.217 44.702,39.688 44.425,40.182C43.718,41.442 43.056,42.876 41.113,44.105C39.935,44.851 38.553,45.256 37.187,45.804C35.674,46.412 34.181,47.182 32.932,48.61C30.767,51.084 29.6,53.08 28.889,57.104C28.817,57.511 29.09,57.901 29.497,57.973C29.905,58.045 30.294,57.772 30.366,57.365C31.016,53.686 32.081,51.859 34.061,49.597C35.139,48.365 36.44,47.721 37.746,47.196C39.199,46.613 40.662,46.166 41.915,45.373C43.785,44.19 44.645,42.859 45.35,41.604C45.946,40.545 46.392,39.536 47.468,38.813C49.166,37.673 51.131,37.67 53.09,37.265C55.311,36.805 57.534,35.924 59.472,32.958C63.219,27.228 62.333,17.102 56.672,11.165C54.43,8.813 50.413,6.837 45.703,5.563C38.732,3.677 30.25,3.311 23.94,5.361C13.356,8.799 1.639,18.932 2.275,32.907C2.595,39.942 6.988,44.595 11.589,48.56C13.8,50.467 16.052,52.213 17.866,54.012C19.579,55.71 20.902,57.443 21.342,59.436C21.431,59.84 21.831,60.096 22.236,60.007C22.64,59.918 22.896,59.517 22.807,59.113C22.026,55.574 18.851,52.695 15.218,49.656C10.135,45.403 4.134,40.773 3.773,32.839C3.711,31.47 3.775,30.14 3.95,28.853ZM15.798,35.944C15.548,40.174 18.309,43.046 21.076,43.94C21.47,44.068 21.893,43.851 22.02,43.457C22.147,43.063 21.931,42.64 21.537,42.513C19.276,41.782 17.057,39.401 17.303,35.924C18.532,35.793 19.746,35.382 20.843,34.695C21.194,34.475 21.3,34.012 21.08,33.661C20.86,33.31 20.397,33.204 20.046,33.424C19.062,34.041 18.067,34.4 16.38,34.463C14.113,34.435 11.902,33.23 10.736,30.803C10.556,30.43 10.108,30.273 9.735,30.452C9.362,30.632 9.205,31.08 9.384,31.453C10.729,34.251 13.199,35.735 15.798,35.944ZM25.206,39.322C26.218,40.446 27.957,40.947 29.813,40.829C32.492,40.658 35.359,39.203 36.387,36.909C36.557,36.531 36.387,36.087 36.01,35.918C35.632,35.749 35.188,35.918 35.018,36.296C34.198,38.127 31.856,39.195 29.717,39.332C28.36,39.418 27.061,39.14 26.32,38.318C26.043,38.011 25.568,37.986 25.261,38.263C24.953,38.54 24.929,39.015 25.206,39.322ZM42.936,22.143C40.872,27.487 34.803,28.098 30.89,26.915C30.807,26.65 30.709,26.394 30.595,26.147C29.978,24.805 28.924,23.755 27.532,23.301C27.138,23.172 26.714,23.387 26.586,23.781C26.457,24.174 26.673,24.598 27.066,24.727C28.058,25.05 28.792,25.817 29.232,26.774C29.335,26.997 29.524,27.747 29.592,27.866C29.871,29.179 29.686,30.668 28.946,31.949C28.739,32.307 28.862,32.766 29.221,32.973C29.579,33.18 30.038,33.057 30.245,32.699C30.994,31.401 31.29,29.935 31.195,28.548C35.584,29.58 41.74,28.596 44.149,23.136C44.759,23.502 45.406,23.703 46.027,23.673C46.441,23.654 46.76,23.302 46.741,22.889C46.721,22.475 46.369,22.155 45.956,22.175C45.065,22.218 44.17,21.432 43.533,20.493C42.883,19.535 42.477,18.365 42.809,17.496C42.956,17.109 42.762,16.675 42.375,16.528C41.989,16.38 41.555,16.574 41.407,16.961C40.927,18.219 41.352,19.949 42.292,21.335C42.487,21.623 42.704,21.894 42.936,22.143ZM50.055,19.565C51.256,20.581 51.683,22.276 51.686,23.888C51.688,25.51 51.267,27.076 50.611,27.826C50.338,28.137 50.37,28.611 50.681,28.884C50.993,29.157 51.467,29.125 51.74,28.813C52.565,27.87 53.189,25.927 53.186,23.886C53.182,21.835 52.551,19.713 51.024,18.42C50.708,18.153 50.234,18.192 49.967,18.508C49.7,18.824 49.739,19.298 50.055,19.565ZM26.047,16.201C25.768,17.376 25.025,18.376 24.002,19.154C22.246,20.489 19.678,21.177 17.027,20.98C16.099,20.018 14.817,19.356 13.079,19.339C12.665,19.335 12.326,19.668 12.322,20.082C12.318,20.496 12.651,20.835 13.065,20.839C16.083,20.868 17.216,23.526 17.559,25.553C17.629,25.961 18.016,26.236 18.424,26.167C18.832,26.098 19.107,25.71 19.038,25.302C18.885,24.399 18.594,23.415 18.118,22.511C20.72,22.471 23.163,21.677 24.91,20.348C25.69,19.754 26.335,19.055 26.804,18.269C27.419,19.433 28.278,20.318 29.231,20.676C29.619,20.822 30.051,20.625 30.197,20.238C30.343,19.85 30.146,19.417 29.759,19.272C28.949,18.967 28.302,18.071 27.865,16.997C27.757,16.733 27.663,16.456 27.583,16.173C27.619,15.964 27.564,15.76 27.447,15.602C27.163,14.191 27.265,12.677 27.975,11.576C28.199,11.228 28.099,10.763 27.751,10.539C27.404,10.315 26.939,10.415 26.715,10.762C25.757,12.246 25.617,14.325 26.047,16.201ZM38.16,12.707C36.596,13.226 35.13,14.263 34.086,15.932C33.866,16.283 33.973,16.746 34.324,16.966C34.675,17.185 35.138,17.079 35.358,16.728C37.325,13.583 41.143,13.21 43.514,14.462C43.88,14.656 44.334,14.515 44.527,14.149C44.72,13.783 44.58,13.329 44.214,13.136C42.921,12.453 41.28,12.156 39.64,12.37C39.594,11.891 39.393,10.749 38.516,9.701C37.787,8.83 36.586,8.002 34.567,7.738C34.157,7.684 33.78,7.974 33.726,8.384C33.672,8.795 33.962,9.171 34.372,9.225C35.892,9.424 36.817,10.008 37.366,10.664C38.137,11.585 38.153,12.606 38.153,12.606C38.153,12.64 38.156,12.674 38.16,12.707Z"/></g><text x="0" y="79" fill="#000000" font-size="5px" font-weight="bold" font-family="'Helvetica Neue', Helvetica, Arial-Unicode, Arial, Sans-serif">Created by Ghozy Muhtarom</text><text x="0" y="84" fill="#000000" font-size="5px" font-weight="bold" font-family="'Helvetica Neue', Helvetica, Arial-Unicode, Arial, Sans-serif">from the Noun Project</text></svg>